<?xml version="1.0" encoding="UTF-8"?>
<svg xmlns="http://www.w3.org/2000/svg" viewBox="440 20 260 330" aria-label="Public Bank logo mark">
  <path fill="#ffffff" d="M697.6,99.27l-70.49-70.49h-102.54l-72.01,72.01v72.19l10.75,10.79-10.75,10.81v72.18l70.47,70.5h105.42l69.14-69.12v-75.06l-9.33-9.36,9.33-9.37v-75.07M575.77,315.66l-85.01-84.98,9.72-9.77,22.56,22.57h105.42l22.64-22.63,9.73,9.72-85.06,85.08ZM537.65,183.76l38.19-38.18,38.11,38.12-38.18,38.18-38.12-38.12ZM651.1,146.51l-23.99-23.97h-102.54l-24.1,24.1-9.72-9.75,85.08-85.08,84.99,84.99-9.73,9.7Z"/>
</svg>
