<?xml version="1.0" encoding="UTF-8"?>
<svg xmlns="http://www.w3.org/2000/svg" viewBox="440 20 700 480">
  <defs>
    <style>
      .st0 { fill: #ffffff; }
    </style>
  </defs>
  <g>
    <path class="st0" d="M697.6,99.27l-70.49-70.49h-102.54l-72.01,72.01v72.19l10.75,10.79-10.75,10.81v72.18l70.47,70.5h105.42l69.14-69.12v-75.06l-9.33-9.36,9.33-9.37v-75.07M575.77,315.66l-85.01-84.98,9.72-9.77,22.56,22.57h105.42l22.64-22.63,9.73,9.72-85.06,85.08ZM537.65,183.76l38.19-38.18,38.11,38.12-38.18,38.18-38.12-38.12ZM651.1,146.51l-23.99-23.97h-102.54l-24.1,24.1-9.72-9.75,85.08-85.08,84.99,84.99-9.73,9.7Z"/>
    <path class="st0" d="M138.4,435.76c0,11.59-1.27,17.75-5.68,21.95-5.68,5.48-11.16,6.68-24.09,6.68l-35.63-.1-1.69.48c-.58.5-.79,1.07-.79,1.97v16.73h-22.13v-73.91h60.53c12.33,0,18.6.27,22.91,4.97,5.1,5.51,6.56,8.9,6.56,21.24M107.87,446.58c2.63,0,4.99-.14,6.64-2.48,1.96-2.45,2.48-4.31,2.48-7.52,0-2.36.67-4.82-2.57-7.78-2.62-2.39-4.6-1.93-6.96-1.93h-34.26l-1.69.5-.48,1.84v15.09l.48,1.68,1.87.59h34.5Z"/>
    <path class="st0" d="M160.45,477.59c-4.7-5.08-6.86-9.21-6.86-15.95v-52.09h21.84v46.97c0,9.91,19.38,9.02,27.01,9.02,7,0,23.24,1.08,23.24-8.61v-47.38h22.52v52.09c0,6.34-1.74,9.89-5.87,15.07-6.28,7.88-28.79,6.55-39.78,6.55-12.32,0-35.45,1.56-42.1-5.68"/>
    <path class="st0" d="M351.76,414.31c3.6,4.14,3.71,7.95,3.71,13.34s-.48,10.78-2.23,13.31c-2.75,4.12-7.46,4.23-7.46,5.7,0,1.35,5.11.77,7.53,3.44,3.84,4.09,4.5,7.42,4.5,12.69,0,6.98-.37,12.36-5.66,16.96-4.29,3.7-14.91,3.7-23.32,3.7h-64.64v-73.91h63.57c9.48,0,19.78,0,24,4.76M335.2,432.95c0-3.82-2.25-7.16-6.65-7.16h-42.92v13.3h42.92c4.68,0,6.65-2.63,6.65-6.15ZM337.84,460.16c0-4.59-2.35-6.95-9.28-6.95h-42.92v13.22h43.39c6.76,0,8.81-2.14,8.81-6.27Z"/>
    <polyline class="st0" points="448.6 466.06 448.69 483.46 371.44 483.46 371.44 409.55 393.97 409.55 394.06 466.06 448.6 466.06"/>
    <rect class="st0" x="463.8" y="409.55" width="22.51" height="73.91"/>
    <path class="st0" d="M594.18,455.57s1.55,14.91-4.51,21.05c-5.36,5.5-24.38,6.77-41.04,6.77s-36.72-.82-41.04-6.87c-6.55-9.42-5.67-19.23-5.67-29.95,0-11.56.1-23.23,6.28-30.87,4.33-5.28,24.17-6.15,40.43-6.15s34.97,1.14,39.2,5.98c6.15,7.1,5.09,19.59,5.09,19.59l-20.48.06s.77-3.11-2.03-6.38c-2.85-2.32-12.26-2.04-21.78-2.04-10.07,0-19.67-.35-22.6,3.24-3.32,4.21-3.43,10.28-3.43,16.36,0,5.68-.69,11.16,3.24,16.17,2.63,3.31,13.03,3.12,22.8,3.12s18.21.69,22.06-2.26c3.03-3.03,2.62-7.82,2.62-7.82h20.87"/>
    <path class="st0" d="M740.78,414.31c3.64,4.14,3.72,7.95,3.72,13.34s-.51,10.78-2.25,13.31c-2.76,4.12-7.44,4.23-7.44,5.7,0,1.35,5.1.77,7.52,3.44,3.82,4.09,4.53,7.42,4.53,12.69,0,6.98-.41,12.36-5.69,16.96-4.3,3.7-14.88,3.7-23.32,3.7h-64.61v-73.91h63.55c9.5,0,19.78,0,23.99,4.76M724.21,432.95c0-3.82-2.24-7.16-6.66-7.16h-42.87v13.3h42.87c4.7,0,6.66-2.63,6.66-6.15ZM726.87,460.16c0-4.59-2.34-6.95-9.32-6.95h-42.87v13.22h43.35c6.77,0,8.84-2.14,8.84-6.27Z"/>
    <path class="st0" d="M754.41,483.46l40.64-73.91h34.35l38.8,73.91h-24.39l-7.36-14.78h-49.93l-8.12,14.78h-24M795.05,453.32l1.67,1.06h30.14l1.6-.57.18-2.17-12.65-25.34-.86-1.09-1.28-.32h-2.83l-1.45.24-.8,1.27-13.22,24.85-.5,2.07Z"/>
    <path class="st0" d="M907.57,429.71c-1.25-1.84-1.53-1.97-3.68-1.97-1.77,0-1.77.69-1.77,2.08v53.45h-21.16v-73.84h38.5l36.83,53.37c1.18,1.78,2.35,2.56,4.09,2.56,1.07,0,1.4-.59,1.4-2.83v-52.98h21.02v73.91h-38.38l-36.85-53.75"/>
    <polyline class="st0" points="1023.01 456.38 1023.01 483.46 1000.48 483.46 1000.48 409.55 1023.01 409.55 1023.01 434.49 1023.5 436.28 1025.46 436.97 1036.72 436.97 1065.93 409.55 1097.61 409.55 1055.53 445.38 1101.74 483.46 1069.23 483.46 1035.24 454.28 1025.15 454.28 1023.5 454.67 1023.01 456.38"/>
  </g>
</svg>
